<svg width="48" height="48" viewBox="0 0 48 48" fill="none" xmlns="http://www.w3.org/2000/svg">
<path d="M23.9713 47.9427C37.2103 47.9427 47.9427 37.2103 47.9427 23.9713C47.9427 10.7323 37.2103 0 23.9713 0C10.7323 0 0 10.7323 0 23.9713C0 37.2103 10.7323 47.9427 23.9713 47.9427Z" fill="#001C4E" fill-opacity="0.87"/>
<path d="M19.785 10.6667L10.0359 16.2868V27.527L13.5914 29.5915L16.4588 27.9284L12.9033 25.8639V17.9499L19.785 13.9929L26.6667 17.9499V25.8639L23.1112 27.9284L25.9785 29.5915L29.5341 27.527V16.2868L19.785 10.6667Z" fill="white"/>
<path d="M28.2152 37.2761L37.9643 31.656V20.4158L34.4087 18.3513L31.5413 20.0144L35.0969 22.0789V29.9929L28.2152 33.9499L21.3334 29.9929V22.0789L24.889 20.0144L22.0216 18.3513L18.4661 20.4158V31.656L28.2152 37.2761Z" fill="white"/>
</svg>
